<?xml version="1.0" encoding="utf-8"?>
<!-- Generator: Adobe Illustrator 18.1.1, SVG Export Plug-In . SVG Version: 6.00 Build 0)  -->
<!DOCTYPE svg PUBLIC "-//W3C//DTD SVG 1.1//EN" "http://www.w3.org/Graphics/SVG/1.1/DTD/svg11.dtd">
<svg version="1.1" id="Layer_1" xmlns="http://www.w3.org/2000/svg" xmlns:xlink="http://www.w3.org/1999/xlink" x="0px" y="0px"
	 viewBox="0 0 147.1 163.4" enable-background="new 0 0 147.1 163.4" xml:space="preserve">
<path fill="#393C97" d="M37.3,33.4c-6.8-2.6-11.4-5.3-11.4-5.3c4-2.8,8.4-5.3,13.2-7.3c4.6-1.9,9.2-3.3,13.9-4.2
	c2.9,2.6,6.5,5.6,10.6,8.2C54.5,25.9,45.5,28.8,37.3,33.4z"/>
<path fill="#5B59A6" d="M128.9,56.8c-3.6-7.9-9.3-14.2-16.2-18.5C98.3,27.5,80.7,23,63.7,24.9c-4.2-2.7-7.8-5.6-10.6-8.2
	C83.9,10.8,115.8,26.9,128.9,56.8z"/>
<path fill="#84C3BF" d="M27.1,56.1c-7.7,0.1-13.3-0.8-13.3-0.8c2.7-4.1,5.9-8,9.6-11.5c4.3-4.1,9-7.6,13.9-10.4
	c3.9,1.5,8.5,2.9,13.4,3.8C41.7,41.6,33.5,48,27.1,56.1z"/>
<path d="M75.2,35c0.1,0,0.1,0,0.2-0.1C75.3,34.9,75.3,35,75.2,35z"/>
<path fill="#ADD4D1" d="M74.6,30.4c-8.3,0.8-16.4,3.1-23.9,6.7c-4.9-0.9-9.5-2.3-13.4-3.8c8.2-4.7,17.2-7.5,26.3-8.5
	C67,27.1,70.7,29,74.6,30.4z"/>
<path d="M83.8,32.6c-2.8,0.5-5.6,1.2-8.3,2.3c2.6-1,5.4-1.8,8.2-2.3C83.6,32.6,83.7,32.6,83.8,32.6z"/>
<path fill="#D4E7E5" d="M83.8,32.6c-0.1,0-0.1,0-0.2,0c7-1.2,14.4-0.7,21.5,1.9c-10-3.7-20.4-5-30.5-4c-3.9-1.4-7.6-3.4-10.9-5.5
	c17.1-1.9,34.6,2.6,49,13.4C104.1,33.1,93.9,30.9,83.8,32.6z"/>
<path fill="#00A79D" d="M58.7,46.9c-2.9,3.4-5.2,7.4-7,11.7c-8.4,21.6-38.9,29.9-38.9,29.9c0.8-4.9,2-9.7,3.9-14.5
	c2.6-6.6,6.1-12.6,10.3-17.9C36.6,56,49.3,54.2,58.7,46.9z"/>
<path fill="#57B4AD" d="M50.7,37.2c7.6,1.3,16,1.4,23.7-1.8c0.3-0.1,0.5-0.2,0.8-0.3c-6.3,2.5-12,6.6-16.5,11.9
	c-9.4,7.2-22.1,9-31.6,9.2C33.5,48,41.7,41.6,50.7,37.2z"/>
<path d="M75.4,34.9C75.4,34.9,75.4,34.9,75.4,34.9C75.4,34.9,75.4,34.9,75.4,34.9z"/>
<path fill="#84C3BF" d="M75.4,34.9C75.4,34.9,75.4,34.9,75.4,34.9c-0.1,0-0.1,0.1-0.2,0.1c-0.3,0.1-0.5,0.2-0.8,0.3
	c-7.7,3.2-16.1,3.2-23.7,1.8c7.4-3.6,15.5-6,23.9-6.7c2.9,1,5.9,1.8,9,2.2C80.8,33.1,78,33.9,75.4,34.9z"/>
<path fill="#84C3BF" d="M105.1,34.5c-7.1-2.6-14.5-3.1-21.5-1.9c-3.1-0.4-6.1-1.1-9-2.2C84.6,29.5,95,30.7,105.1,34.5z"/>
<path fill="#393C97" d="M106.8,118.8c7,2.3,11.7,4.9,11.7,4.9c-4,3-8.3,5.7-13,7.9c-4.6,2.1-9.2,3.7-13.9,4.8
	c-3-2.5-6.8-5.4-11.1-7.9C89.7,127.1,98.7,123.8,106.8,118.8z"/>
<path fill="#5B59A6" d="M13.1,98.8c3.9,7.9,10,14.1,17.2,18.1c14.9,10.3,33,14.2,50.2,11.6c4.3,2.5,8.1,5.4,11.1,7.9
	C60.5,143.5,27.6,128.5,13.1,98.8z"/>
<path fill="#84C3BF" d="M116.3,95.3c7.8-0.5,13.5,0.3,13.5,0.3c-2.6,4.3-5.7,8.3-9.3,12.1c-4.2,4.4-8.8,8.1-13.7,11.1
	c-4-1.3-8.7-2.6-13.7-3.3C102.1,110.6,110.1,103.8,116.3,95.3z"/>
<path d="M68.3,118.7c-0.1,0-0.1,0.1-0.2,0.1C68.2,118.8,68.3,118.7,68.3,118.7z"/>
<path fill="#ADD4D1" d="M69.2,123.3c8.4-1.1,16.5-3.8,23.9-7.8c5,0.7,9.8,1.9,13.7,3.3c-8.2,5.1-17.1,8.3-26.4,9.7
	C77,126.4,73.2,124.6,69.2,123.3z"/>
<path d="M59.8,121.5c2.8-0.6,5.6-1.5,8.4-2.7c-2.6,1.2-5.4,2.1-8.2,2.7C59.9,121.5,59.8,121.5,59.8,121.5z"/>
<path fill="#D4E7E5" d="M59.8,121.5c0.1,0,0.1,0,0.2,0c-7,1.5-14.5,1.3-21.8-1c10.3,3.4,20.9,4.2,31,2.8c4,1.3,7.8,3.1,11.3,5.1
	c-17.2,2.6-35.2-1.2-50.2-11.6C39.1,121.8,49.6,123.6,59.8,121.5z"/>
<path fill="#00A79D" d="M84.6,105.9c2.8-3.6,5-7.7,6.6-12.2c7.6-22.2,38.2-31.8,38.2-31.8c-0.6,5-1.7,9.9-3.4,14.9
	c-2.3,6.8-5.6,13-9.7,18.5C106.6,95.9,93.9,98.2,84.6,105.9z"/>
<path fill="#57B4AD" d="M93.1,115.5c-7.8-1.1-16.3-0.7-23.9,2.8c-0.3,0.1-0.5,0.2-0.8,0.4c6.3-2.8,11.9-7.2,16.2-12.8
	c9.3-7.7,22.1-10.1,31.7-10.6C110.1,103.8,102.1,110.6,93.1,115.5z"/>
<path d="M68.2,118.8C68.2,118.8,68.2,118.8,68.2,118.8C68.2,118.8,68.2,118.8,68.2,118.8z"/>
<path fill="#84C3BF" d="M68.2,118.8C68.2,118.8,68.2,118.8,68.2,118.8c0.1,0,0.1-0.1,0.2-0.1c0.3-0.1,0.5-0.2,0.8-0.4
	c7.6-3.6,16.2-3.9,23.9-2.8c-7.4,4-15.5,6.7-23.9,7.8c-3-0.9-6-1.6-9.2-1.8C62.8,120.9,65.5,120,68.2,118.8z"/>
<path fill="#84C3BF" d="M38.1,120.5c7.3,2.3,14.8,2.5,21.8,1c3.1,0.2,6.2,0.9,9.2,1.8C59,124.7,48.5,123.8,38.1,120.5z"/>
<path d="M131.7,76.6c0.1,0,0.3,0,0.4,0.1C132,76.6,131.9,76.6,131.7,76.6z"/>
<path d="M132.2,76.6C132.2,76.6,132.2,76.6,132.2,76.6C132.2,76.6,132.2,76.6,132.2,76.6z"/>
</svg>
