<?xml version="1.0" encoding="utf-8"?>
<!-- Generator: Adobe Illustrator 18.1.1, SVG Export Plug-In . SVG Version: 6.00 Build 0)  -->
<!DOCTYPE svg PUBLIC "-//W3C//DTD SVG 1.1//EN" "http://www.w3.org/Graphics/SVG/1.1/DTD/svg11.dtd">
<svg version="1.1" id="Layer_1" xmlns="http://www.w3.org/2000/svg" xmlns:xlink="http://www.w3.org/1999/xlink" x="0px" y="0px"
	 viewBox="0 0 308.6 125.9" enable-background="new 0 0 308.6 125.9" xml:space="preserve">
<path fill="#393C97" d="M32.8,27.6c-7-2.1-11.7-4.5-11.7-4.5c3.8-3.1,8-5.9,12.6-8.2c4.4-2.2,9-3.9,13.6-5.1c3,2.4,6.9,5.1,11.2,7.5
	C49.5,18.9,40.7,22.4,32.8,27.6z"/>
<path fill="#5B59A6" d="M125.8,44.6c-4.1-7.7-10.3-13.6-17.5-17.3c-15-9.8-32.9-13-49.8-10c-4.3-2.4-8.1-5.1-11.2-7.5
	C77.8,1.9,110.7,15.7,125.8,44.6z"/>
<path fill="#84C3BF" d="M24.2,51c-7.7,0.7-13.3,0.1-13.3,0.1c2.4-4.3,5.4-8.4,8.8-12.2c4-4.4,8.4-8.2,13.2-11.3
	c4,1.2,8.7,2.3,13.6,2.8C37.7,35.5,30.1,42.5,24.2,51z"/>
<path d="M70.8,26.6c0.1,0,0.1-0.1,0.2-0.1C70.9,26.5,70.8,26.5,70.8,26.6z"/>
<path fill="#ADD4D1" d="M69.8,22.1c-8.3,1.4-16.2,4.2-23.4,8.4c-5-0.5-9.7-1.6-13.6-2.8c7.9-5.2,16.7-8.7,25.7-10.3
	C62,19.2,65.8,20.9,69.8,22.1z"/>
<path d="M79.1,23.6c-2.8,0.7-5.5,1.6-8.2,2.9c2.6-1.2,5.2-2.2,8-2.9C79,23.6,79.1,23.6,79.1,23.6z"/>
<path fill="#D4E7E5" d="M79.1,23.6c-0.1,0-0.1,0-0.2,0c6.9-1.7,14.3-1.7,21.6,0.4c-10.3-3-20.7-3.6-30.7-1.9
	c-4-1.2-7.8-2.8-11.3-4.7c16.9-3,34.7,0.2,49.8,10C99.5,22.7,89.1,21.2,79.1,23.6z"/>
<path fill="#00A79D" d="M55.1,39.6c-2.6,3.6-4.7,7.7-6.1,12.2c-6.9,22.1-36.7,32.5-36.7,32.5c0.4-4.9,1.4-9.9,2.9-14.7
	c2.1-6.8,5.2-13,9-18.5C33.7,50.2,46.2,47.5,55.1,39.6z"/>
<path fill="#57B4AD" d="M46.5,30.4c7.7,0.8,16.1,0.3,23.5-3.5c0.3-0.1,0.5-0.3,0.8-0.4c-6.1,3-11.5,7.4-15.6,13
	C46.2,47.5,33.7,50.2,24.2,51C30.1,42.5,37.7,35.5,46.5,30.4z"/>
<path d="M70.9,26.5C70.9,26.5,71,26.5,70.9,26.5C71,26.5,70.9,26.5,70.9,26.5z"/>
<path fill="#84C3BF" d="M71,26.5C71,26.5,70.9,26.5,71,26.5c-0.1,0-0.1,0.1-0.2,0.1c-0.3,0.1-0.5,0.3-0.8,0.4
	c-7.4,3.7-15.8,4.3-23.5,3.5c7.2-4.2,15.1-7,23.4-8.4c2.9,0.8,6,1.4,9.1,1.6C76.2,24.3,73.5,25.3,71,26.5z"/>
<path fill="#84C3BF" d="M100.5,24c-7.3-2.1-14.7-2.1-21.6-0.4c-3.1-0.1-6.2-0.7-9.1-1.6C79.8,20.4,90.2,20.9,100.5,24z"/>
<path fill="#393C97" d="M287.5,88.1c7.1,0.2,12.1,1.2,12.1,1.2c-2.8,3.9-6,7.6-9.8,10.9c-3.6,3.2-7.4,6-11.4,8.3
	c-3.5-1.5-7.7-3-12.4-4.2C274.1,100.4,281.4,95,287.5,88.1z"/>
<path fill="#5B59A6" d="M195.9,95.8c5.8,6.1,13.1,10.1,20.8,11.8c16.6,5.3,34.2,3.8,49.2-3.4c4.7,1.1,8.9,2.7,12.4,4.2
	C251.9,123.7,217.5,119.1,195.9,95.8z"/>
<path fill="#84C3BF" d="M289.6,63.9c7-2.6,12.5-3.5,12.5-3.5c-1.2,4.6-2.9,9.2-5.2,13.7c-2.6,5.2-5.8,9.8-9.5,14
	c-4-0.1-8.7,0.1-13.5,0.8C280.9,81.9,286.3,73.4,289.6,63.9z"/>
<path d="M252.2,98.7c0,0-0.1,0.1-0.1,0.1C252.1,98.8,252.1,98.8,252.2,98.7z"/>
<path fill="#ADD4D1" d="M254.2,102.7c7.4-3.4,14.1-8.1,19.8-13.8c4.8-0.8,9.5-0.9,13.5-0.8c-6.1,6.9-13.4,12.4-21.5,16.2
	C262.3,103.4,258.3,102.8,254.2,102.7z"/>
<path d="M245.1,103.6c2.4-1.3,4.8-2.9,6.9-4.8c-2.1,1.8-4.3,3.4-6.8,4.7C245.2,103.6,245.1,103.6,245.1,103.6z"/>
<path fill="#D4E7E5" d="M245.1,103.6c0.1,0,0.1,0,0.2,0c-6,3.4-13,5.3-20.3,5.2c10.4,0.2,20.4-2,29.3-6c4.1,0.1,8.1,0.7,11.8,1.6
	c-15.1,7.2-32.7,8.7-49.2,3.4C226.2,109.7,236.3,108.4,245.1,103.6z"/>
<path fill="#00A79D" d="M263.5,82.5c1.5-4.1,2.5-8.4,2.6-13c0.8-22.5,26.1-39.9,26.1-39.9c0.9,4.7,1.2,9.6,1.1,14.6
	c-0.3,6.9-1.5,13.5-3.7,19.7C280.9,67.1,269.9,72.8,263.5,82.5z"/>
<path fill="#57B4AD" d="M274,88.9c-7.4,1.2-15.2,3.9-21.2,9.3c-0.2,0.2-0.4,0.4-0.6,0.6c5-4.4,8.9-9.9,11.3-16.2
	c6.4-9.7,17.4-15.4,26.1-18.6C286.3,73.4,280.9,81.9,274,88.9z"/>
<path d="M252,98.8C252,98.8,252,98.9,252,98.8C252,98.9,252,98.8,252,98.8z"/>
<path fill="#84C3BF" d="M252,98.9C252,98.9,252,98.8,252,98.9c0.1,0,0.1-0.1,0.1-0.1c0.2-0.2,0.4-0.4,0.6-0.6
	c6-5.4,13.7-8.1,21.2-9.3c-5.7,5.7-12.4,10.4-19.8,13.8c-3,0-6,0.2-8.9,0.9C247.7,102.2,249.9,100.7,252,98.9z"/>
<path fill="#84C3BF" d="M224.9,108.8c7.4,0.1,14.3-1.8,20.3-5.2c3-0.7,6-0.9,8.9-0.9C245.3,106.8,235.4,109,224.9,108.8z"/>
<path d="M298.6,42.4c0.1,0,0.3-0.1,0.4-0.1C298.9,42.4,298.7,42.4,298.6,42.4z"/>
<path d="M299,42.3C299,42.3,299,42.3,299,42.3C299,42.3,299,42.3,299,42.3z"/>
<g>
	<text transform="matrix(1 0 0 1 54.7102 88.6637)" fill="#00A79D" font-family="'Candara'" font-size="60.5817">DESIGN</text>
	<text transform="matrix(1 0 0 1 54.7102 88.6637)" fill="#393C97" font-family="'Candara'" font-size="60.5817">DESIGN</text>
</g>
</svg>
