<svg xmlns="http://www.w3.org/2000/svg" viewBox="268.2 58.9 653.5 653.3">
  <circle cx="595.9" cy="386.4" r="325.8" fill="#FFF"/>
  <path fill="#1BA99F" d="M537.8 410.3h-65.9l1.2-131.1h67.2v-44.7c0-37.5 5.5-59 10.5-78.4 6.8-26.7 21.8-63.9 48.9-82.9 9.1-6.3 16.8-10.4 24.3-12.9-9.8-.9-19.8-1.4-29.8-1.4-180 0-326 145.9-326 326 0 160.8 116.5 294.4 269.6 321.1V410.3zM743.3 95v79.7s-39.4 1.9-54.6 1.9c-15 0-26.5 6.1-33 14-12.6 15.5-6 88.4-6 88.4h84.9l-17.4 131.1h-63.8v295.3C805.1 677.7 920.2 544.8 920.2 385c0-126.3-71.9-235.8-176.9-290z"/>
</svg>
