<?xml version="1.0" encoding="utf-8"?>
<!-- Generator: Adobe Illustrator 18.1.1, SVG Export Plug-In . SVG Version: 6.00 Build 0)  -->
<!DOCTYPE svg PUBLIC "-//W3C//DTD SVG 1.1//EN" "http://www.w3.org/Graphics/SVG/1.1/DTD/svg11.dtd">
<svg version="1.1" xmlns="http://www.w3.org/2000/svg" xmlns:xlink="http://www.w3.org/1999/xlink" x="0px" y="0px"
	 viewBox="268.2 58.9 653.5 653.3" enable-background="new 268.2 58.9 653.5 653.3" xml:space="preserve">
<g id="white_1_">
	<g id="white">
		<circle fill="#FFFFFF" cx="595.9" cy="386.4" r="325.8"/>
	</g>
</g>
<g id="dark_1_">
	<g id="light">
		<path fill="#1BA99F" d="M537.8,410.3h-65.9l1.2-131.1h67.2v-44.7c0-37.5,5.5-59,10.5-78.4c6.8-26.7,21.8-63.9,48.9-82.9
			c9.1-6.3,16.8-10.4,24.3-12.9c-9.8-0.9-19.8-1.4-29.8-1.4c-180,0-326,145.9-326,326c0,160.8,116.5,294.4,269.6,321.1V410.3z"/>
	</g>
	<g id="dark">
		<path fill="#1BA99F" d="M743.3,95v79.7c0,0-39.4,1.9-54.6,1.9c-15,0-26.5,6.1-33,14c-12.6,15.5-6,88.4-6,88.4h84.9l-17.4,131.1
			h-63.8v295.3C805.1,677.7,920.2,544.8,920.2,385C920.2,258.7,848.3,149.2,743.3,95z"/>
	</g>
	<g id="Layer_1_1_">
	</g>
</g>
</svg>
