<?xml version="1.0" encoding="utf-8"?>
<!-- Generator: Adobe Illustrator 18.1.1, SVG Export Plug-In . SVG Version: 6.00 Build 0)  -->
<!DOCTYPE svg PUBLIC "-//W3C//DTD SVG 1.1//EN" "http://www.w3.org/Graphics/SVG/1.1/DTD/svg11.dtd">
<svg version="1.1" id="dark_1_" xmlns="http://www.w3.org/2000/svg" xmlns:xlink="http://www.w3.org/1999/xlink" x="0px" y="0px"
	 width="792.2px" height="792px" viewBox="484.1 58.9 792.2 792" enable-background="new 484.1 58.9 792.2 792"
	 xml:space="preserve">
<g id="white">
	<circle fill="#FFFFFF" cx="881.4" cy="455.9" r="395"/>
</g>
<g id="light">
	<path fill="#1BA99F" d="M810.9,484.9H731l1.5-158.9h81.5v-54.2c0-45.5,6.7-71.5,12.7-95c8.2-32.4,26.4-77.5,59.3-100.5
		c11-7.6,20.4-12.6,29.5-15.6c-11.9-1.1-24-1.7-36.1-1.7c-218.2,0-395.2,176.9-395.2,395.2c0,194.9,141.2,356.9,326.8,389.3
		L810.9,484.9L810.9,484.9z"/>
</g>
<g id="dark">
	<path fill="#1BA99F" d="M1060,102.7v96.6c0,0-47.8,2.3-66.2,2.3c-18.2,0-32.1,7.4-40,17c-15.3,18.8-7.3,107.2-7.3,107.2h102.9
		l-21.1,158.9h-77.3v358c183.9-33.6,323.4-194.7,323.4-388.4C1274.5,301.1,1187.3,168.4,1060,102.7z"/>
</g>
</svg>
