<?xml version="1.0" encoding="utf-8"?>
<!-- Generator: Adobe Illustrator 18.1.1, SVG Export Plug-In . SVG Version: 6.00 Build 0)  -->
<!DOCTYPE svg PUBLIC "-//W3C//DTD SVG 1.1//EN" "http://www.w3.org/Graphics/SVG/1.1/DTD/svg11.dtd">
<svg version="1.1" xmlns="http://www.w3.org/2000/svg" xmlns:xlink="http://www.w3.org/1999/xlink" x="0px" y="0px"
	 viewBox="353.5 186.8 597.2 598.9" enable-background="new 353.5 186.8 597.2 598.9" xml:space="preserve">
<g id="white">
	<circle fill="#FFFFFF" cx="652.5" cy="487.4" r="298.2"/>
</g>
<g id="dark">
	<path fill="#1BA99F" d="M817.4,674.2l-1.2-182.5c0,0,2.3-45.1-49.7-48.5c0,0-42.5-2.7-57.8,51v182.3h-93.6V370.4h93.6v35.2
		c13.4-18.4,44.3-48.7,100.5-42.1c0,0,88.9-1.2,99.3,92.4c0,0,7.6,99,6.8,168.1c21.9-41.5,34.4-88.8,34.4-139
		c0-164.7-133.5-298.2-298.2-298.2c-48.1,0-93.4,11.4-133.7,31.6c26.8,4.5,47.2,27.8,47.2,55.8c0,31.3-25.3,56.6-56.6,56.6
		c-31.3,0-56.6-25.3-56.6-56.6c0-4,0.4-7.9,1.2-11.7C392,317,353.5,396.5,353.5,484.9c0,164.7,133.5,298.2,298.2,298.2
		c92.8,0,175.7-42.4,230.4-108.9H817.4z M556.4,675.4h-97V370.4h97V675.4z"/>
</g>
</svg>
