<?xml version="1.0" encoding="utf-8"?>
<!-- Generator: Adobe Illustrator 18.1.1, SVG Export Plug-In . SVG Version: 6.00 Build 0)  -->
<!DOCTYPE svg PUBLIC "-//W3C//DTD SVG 1.1//EN" "http://www.w3.org/Graphics/SVG/1.1/DTD/svg11.dtd">
<svg version="1.1" id="dark" xmlns="http://www.w3.org/2000/svg" xmlns:xlink="http://www.w3.org/1999/xlink" x="0px" y="0px"
	 width="789.8px" height="791.9px" viewBox="570.6 186.8 789.8 791.9" style="enable-background:new 570.6 186.8 789.8 791.9;"
	 xml:space="preserve">
<style type="text/css">
	.st0{fill:#FFFFFF;}
	.st1{fill:#1BA99F;}
</style>
<circle id="white" class="st0" cx="966" cy="584.3" r="394.3"/>
<path id="dark_1_" class="st1" d="M1184.1,831.3l-1.6-241.3c0,0,3-59.6-65.7-64.1c0,0-56.2-3.6-76.4,67.4v241.1H916.6V429.6h123.8
	v46.5c17.7-24.3,58.6-64.4,132.9-55.7c0,0,117.6-1.6,131.3,122.2c0,0,10.1,130.9,9,222.3c29-54.9,45.5-117.4,45.5-183.8
	c0-217.8-176.5-394.3-394.3-394.3c-63.6,0-123.5,15.1-176.8,41.8c35.4,6,62.4,36.8,62.4,73.8c0,41.4-33.5,74.8-74.8,74.8
	c-41.4,0-74.8-33.5-74.8-74.8c0-5.3,0.5-10.4,1.6-15.5C621.5,359,570.6,464.1,570.6,581c0,217.8,176.5,394.3,394.3,394.3
	c122.7,0,232.3-56.1,304.7-144L1184.1,831.3L1184.1,831.3z M838.9,832.9H710.7V429.6h128.3V832.9z"/>
</svg>
