<svg xmlns="http://www.w3.org/2000/svg" viewBox="353.5 186.8 597.2 598.9">
  <circle cx="652.5" cy="487.4" r="298.2" fill="#FFF"/>
  <path fill="#1BA99F" d="M817.4 674.2l-1.2-182.5s2.3-45.1-49.7-48.5c0 0-42.5-2.7-57.8 51v182.3h-93.6V370.4h93.6v35.2c13.4-18.4 44.3-48.7 100.5-42.1 0 0 88.9-1.2 99.3 92.4 0 0 7.6 99 6.8 168.1 21.9-41.5 34.4-88.8 34.4-139 0-164.7-133.5-298.2-298.2-298.2-48.1 0-93.4 11.4-133.7 31.6 26.8 4.5 47.2 27.8 47.2 55.8 0 31.3-25.3 56.6-56.6 56.6s-56.6-25.3-56.6-56.6c0-4 .4-7.9 1.2-11.7-61 54.5-99.5 134-99.5 222.4 0 164.7 133.5 298.2 298.2 298.2 92.8 0 175.7-42.4 230.4-108.9h-64.7zm-261 1.2h-97v-305h97v305z"/>
</svg>
