<svg xmlns="http://www.w3.org/2000/svg" xmlns:xlink="http://www.w3.org/1999/xlink" viewBox="40.3 83.4 537.8 529.6" enable-background="new 40.3 83.4 537.8 529.6"><defs><circle id="a" cx="306" cy="349" r="242.4"/></defs><clipPath id="b"><use xlink:href="#a" overflow="visible"/></clipPath><g clip-path="url(#b)"><defs><circle id="c" cx="306" cy="349" r="265.7"/></defs><clipPath id="d"><use xlink:href="#c" overflow="visible"/></clipPath><circle clip-path="url(#d)" fill="#8AC5BF" cx="306" cy="349" r="265.7"/></g><g clip-path="url(#b)"><defs><circle id="e" cx="306" cy="349" r="265.7"/></defs><clipPath id="f"><use xlink:href="#e" overflow="visible"/></clipPath><path clip-path="url(#f)" fill="#1BA99F" d="M156.7 569.8l61.5 6.5 54.2-6.5 33.4-14.1 28-20.5 36.9-44s35.9-129-93.2-146.3c0 0-106.5-54.2-69.5-127 0 0 56.4-101.7 200.6-110.8l59.2 32.4s128 77.3 108.1 239.5c0 0-14.1 147.5-164.6 223.1 0-.1-128.7 52.3-254.6-32.3z"/></g><circle clip-path="url(#b)" cx="313.5" cy="344.1" r="254.3" fill="none"/><path clip-path="url(#b)" fill="#fff" d="M436.2 118.4s-145.1 20.8-193.3 81.7c-20.7 26.1-19.8 63 1.4 88.6 15.7 19 42.9 40.6 88.6 49 42.6 7.8 90.2 43.7 95.2 86.6 2.7 23 4.2 48.9-18.6 79.1-25.4 33.6-63.1 64.1-103.5 76.4-30.8 9.3-94.1 14-138.9 5.5l-33.6-20.3s141.1 31.5 213.2-54.5c34.2-40.8 24.7-102.9-21.1-130.1-11-6.5-24.6-11.6-41.3-14.2-31.3-4.8-60.9-17.6-84.9-38.3-42.4-36.6-77.6-97 25.5-164 0 0 73.2-61.8 234.3-77l46.5 48.4-69.5-16.9z"/></svg>