<svg xmlns="http://www.w3.org/2000/svg" viewBox="285 118.1 725 725">
  <ellipse cx="648.3" cy="503.5" fill="#FFF" rx="303.4" ry="301.5"/>
  <path fill="#8AC5BF" d="M556.7 744.4c30.1 0 57.6-5.1 82.4-15.5 24.8-10.3 44.4-24.4 58.8-42.2 14.3-17.8 21.5-37.1 21.5-58 0-20.6-6.5-38.9-19.6-55-13.1-16.1-36.6-34.7-70.7-55.8-33.2-20.9-53.5-33.7-60.7-38.5-7.2-4.8-16.7-11.6-28.3-20.5-20.7-17.1-31.1-37.3-31.1-60.6 0-42 29-82.4 86.9-121.2 16.2-11 34.7-20.9 55.6-29.7s41.4-15.5 61.5-20.1c14.8-3.3 28.8-5.4 42.2-6.3-33.3-12.5-69.4-19.4-107-19.4-167.5 0-303.3 135.1-303.3 301.8 0 81.9 32.8 156.1 86 210.5 43 20.4 85 30.5 125.8 30.5z"/>
  <path fill="#1BA99F" d="M852.2 280.2c-2 17.8-10.8 36.6-26.4 56.5-17.9 22.9-42.3 44-73.3 63.2l-34.1-18.1c21-13.4 38.8-26.8 53.2-40.1 14.5-13.4 25.7-26.4 33.6-39.1 7.9-12.7 11.9-24.3 11.9-34.7 0-7.2-2.1-13.4-6.4-18.5-.4-.5-.9-1-1.3-1.5-5.9-3.7-12-7.2-18.1-10.5-7.8-2.4-17.3-3.7-28.7-3.7-22.1 0-45.9 4.1-71.3 12.2-25.4 8.2-49.3 18.9-71.8 32.3-50 29.7-75 62.8-75 99.2 0 10.2 3 19.7 8.9 28.7 6 9 16.4 19.1 31.3 30.3 14.9 11.2 36.7 25.7 65.4 43.4 21.3 13.1 37.4 23.8 48.3 32.1 10.9 8.3 19.9 17 27 26.1 15.9 19 23.9 40.3 23.9 63.8 0 18.2-5 36.7-15.1 55.4-10.1 18.7-24.4 36.3-42.8 52.6-43.2 38.3-103.1 57.4-179.8 57.4-3.8 0-7.6 0-11.3-.1 43.7 24.3 94 38.1 147.6 38.1 167.5 0 303.3-135.1 303.3-301.8.3-88.4-38-168-99-223.2z"/>
</svg>
