<?xml version="1.0" encoding="utf-8"?>
<!-- Generator: Adobe Illustrator 18.1.1, SVG Export Plug-In . SVG Version: 6.00 Build 0)  -->
<!DOCTYPE svg PUBLIC "-//W3C//DTD SVG 1.1//EN" "http://www.w3.org/Graphics/SVG/1.1/DTD/svg11.dtd">
<svg version="1.1" xmlns="http://www.w3.org/2000/svg" xmlns:xlink="http://www.w3.org/1999/xlink" x="0px" y="0px"
	 viewBox="285 118.1 725 725" enable-background="new 285 118.1 725 725" xml:space="preserve">
<g id="white">
	<ellipse fill="#FFFFFF" cx="648.3" cy="503.5" rx="303.4" ry="301.5"/>
</g>
<g id="light">
	<path fill="#8AC5BF" d="M556.7,744.4c30.1,0,57.6-5.1,82.4-15.5c24.8-10.3,44.4-24.4,58.8-42.2c14.3-17.8,21.5-37.1,21.5-58
		c0-20.6-6.5-38.9-19.6-55c-13.1-16.1-36.6-34.7-70.7-55.8c-33.2-20.9-53.5-33.7-60.7-38.5c-7.2-4.8-16.7-11.6-28.3-20.5
		c-20.7-17.1-31.1-37.3-31.1-60.6c0-42,29-82.4,86.9-121.2c16.2-11,34.7-20.9,55.6-29.7c20.9-8.8,41.4-15.5,61.5-20.1
		c14.8-3.3,28.8-5.4,42.2-6.3c-33.3-12.5-69.4-19.4-107-19.4c-167.5,0-303.3,135.1-303.3,301.8c0,81.9,32.8,156.1,86,210.5
		C473.9,734.3,515.9,744.4,556.7,744.4z"/>
</g>
<g id="dark">
	<path fill="#1BA99F" d="M852.2,280.2c-2,17.8-10.8,36.6-26.4,56.5c-17.9,22.9-42.3,44-73.3,63.2l-34.1-18.1
		c21-13.4,38.8-26.8,53.2-40.1c14.5-13.4,25.7-26.4,33.6-39.1c7.9-12.7,11.9-24.3,11.9-34.7c0-7.2-2.1-13.4-6.4-18.5
		c-0.4-0.5-0.9-1-1.3-1.5c-5.9-3.7-12-7.2-18.1-10.5c-7.8-2.4-17.3-3.7-28.7-3.7c-22.1,0-45.9,4.1-71.3,12.2
		c-25.4,8.2-49.3,18.9-71.8,32.3c-50,29.7-75,62.8-75,99.2c0,10.2,3,19.7,8.9,28.7c6,9,16.4,19.1,31.3,30.3
		c14.9,11.2,36.7,25.7,65.4,43.4c21.3,13.1,37.4,23.8,48.3,32.1c10.9,8.3,19.9,17,27,26.1c15.9,19,23.9,40.3,23.9,63.8
		c0,18.2-5,36.7-15.1,55.4c-10.1,18.7-24.4,36.3-42.8,52.6c-43.2,38.3-103.1,57.4-179.8,57.4c-3.8,0-7.6,0-11.3-0.1
		c43.7,24.3,94,38.1,147.6,38.1c167.5,0,303.3-135.1,303.3-301.8C951.5,415,913.2,335.4,852.2,280.2z"/>
</g>
</svg>
