<?xml version="1.0" encoding="utf-8"?>
<!-- Generator: Adobe Illustrator 18.1.1, SVG Export Plug-In . SVG Version: 6.00 Build 0)  -->
<!DOCTYPE svg PUBLIC "-//W3C//DTD SVG 1.1//EN" "http://www.w3.org/Graphics/SVG/1.1/DTD/svg11.dtd">
<svg version="1.1" id="Layer_1" xmlns="http://www.w3.org/2000/svg" xmlns:xlink="http://www.w3.org/1999/xlink" x="0px" y="0px"
	 width="662.9px" height="659.4px" viewBox="566.4 209.3 662.9 659.4" style="enable-background:new 566.4 209.3 662.9 659.4;"
	 xml:space="preserve">
<style type="text/css">
	.st0{fill:#FFFFFF;}
	.st1{fill:#8AC5BF;}
	.st2{fill:#1BA99F;}
</style>
<ellipse id="white" class="st0" cx="897.9" cy="539.1" rx="331.4" ry="329.4"/>
<path id="light" class="st1" d="M797.8,802.3c32.9,0,62.9-5.6,90-16.9c27.1-11.3,48.5-26.7,64.2-46.1c15.6-19.4,23.5-40.5,23.5-63.4
	c0-22.5-7.1-42.5-21.4-60.1c-14.3-17.6-40-37.9-77.2-61c-36.3-22.8-58.4-36.8-66.3-42.1c-7.9-5.2-18.2-12.7-30.9-22.4
	c-22.6-18.7-34-40.7-34-66.2c0-45.9,31.7-90,94.9-132.4c17.7-12,37.9-22.8,60.7-32.4s45.2-16.9,67.2-22c16.2-3.6,31.5-5.9,46.1-6.9
	c-36.4-13.7-75.8-21.2-116.9-21.2c-183,0-331.3,147.6-331.3,329.7c0,89.5,35.8,170.5,93.9,230C707.4,791.2,753.2,802.3,797.8,802.3z
	"/>
<path id="dark" class="st2" d="M1120.6,295.2c-2.2,19.4-11.8,40-28.8,61.7c-19.6,25-46.2,48.1-80.1,69l-37.3-19.8
	c22.9-14.6,42.4-29.3,58.1-43.8c15.8-14.6,28.1-28.8,36.7-42.7c8.6-13.9,13-26.5,13-37.9c0-7.9-2.3-14.6-7-20.2
	c-0.4-0.5-1-1.1-1.4-1.6c-6.4-4-13.1-7.9-19.8-11.5c-8.5-2.6-18.9-4-31.4-4c-24.1,0-50.1,4.5-77.9,13.3c-27.7,9-53.9,20.6-78.4,35.3
	c-54.6,32.4-81.9,68.6-81.9,108.4c0,11.1,3.3,21.5,9.7,31.4c6.6,9.8,17.9,20.9,34.2,33.1c16.3,12.2,40.1,28.1,71.4,47.4
	c23.3,14.3,40.9,26,52.8,35.1c11.9,9.1,21.7,18.6,29.5,28.5c17.4,20.8,26.1,44,26.1,69.7c0,19.9-5.5,40.1-16.5,60.5
	c-11,20.4-26.7,39.7-46.8,57.5c-47.2,41.8-112.6,62.7-196.4,62.7c-4.2,0-8.3,0-12.3-0.1c47.7,26.5,102.7,41.6,161.2,41.6
	c183,0,331.3-147.6,331.3-329.7C1229.1,442.4,1187.3,355.5,1120.6,295.2L1120.6,295.2z"/>
</svg>
