<?xml version="1.0" encoding="utf-8"?>
<!-- Generator: Adobe Illustrator 18.1.1, SVG Export Plug-In . SVG Version: 6.00 Build 0)  -->
<!DOCTYPE svg PUBLIC "-//W3C//DTD SVG 1.1//EN" "http://www.w3.org/Graphics/SVG/1.1/DTD/svg11.dtd">
<svg version="1.1" id="Layer_1" xmlns="http://www.w3.org/2000/svg" xmlns:xlink="http://www.w3.org/1999/xlink" x="0px" y="0px"
	 viewBox="149.9 -33 474.3 489" enable-background="new 149.9 -33 474.3 489" xml:space="preserve">
<g>
</g>
<g>
	<defs>
		<circle id="SVGID_1_" cx="393.1" cy="217.7" r="205.9"/>
	</defs>
	<clipPath id="SVGID_2_">
		<use xlink:href="#SVGID_1_"  overflow="visible"/>
	</clipPath>
	<circle clip-path="url(#SVGID_2_)" fill="#8AC5BF" cx="393.1" cy="217.7" r="205.9"/>
	<path clip-path="url(#SVGID_2_)" fill="#1BA99F" d="M277.4,388.8l47.7,5l42-5l25.9-10.9l21.7-15.9l28.6-34.1
		c0,0,27.8-100-72.2-113.4c0,0-82.5-42-53.9-98.4c0,0,43.7-78.8,155.5-85.9l45.9,25.1c0,0,99.2,59.9,83.8,185.6
		c0,0-10.9,114.3-127.6,172.9C474.7,413.8,375,454.4,277.4,388.8z"/>
	<g clip-path="url(#SVGID_2_)">
		<text transform="matrix(1 0 0 1 234.1085 396.4734)" fill="#FFFFFF" font-family="'SavoyeLetPlain'" font-size="563.1086">S</text>
	</g>
</g>
</svg>
