<svg xmlns="http://www.w3.org/2000/svg" id="Layer_1" width="649.8" height="649.8" viewBox="0 0 649.8 649.8">
  <style>
    .st0{fill:none;stroke:#1BA99F;stroke-width:14;stroke-miterlimit:10;} .st1{fill:#49BAB2;} .st2{fill:#A1D1CC;} .st3{fill:#8AC5BF;} .st4{fill:#1BA99F;}
  </style>
  <circle cx="324.9" cy="324.9" r="317.9" class="st0"/>
  <path d="M272.6 111.9S374.2 75.7 459 155c0 0-44.5-2.8-171.1 114.1 0 0-44.5-68.1-15.3-157.2zM484 175.5s81.6 70.4 54.6 183.4c0 0-19.6-40.1-183.8-92.4.1 0 37.4-72.4 129.2-91z" class="st1"/>
  <path d="M535.4 384.9s-18.8 106.2-129.7 140.7c0 0 24.5-37.3-14.5-205.2 0 0 81.3-4.9 144.2 64.5z" class="st2"/>
  <path d="M373.1 539.5S271.3 574.9 187 494.9c0 0 44.5 3.1 172-112.8 0 .1 44 68.6 14.1 157.4zm-206.7-62.1s-80.5-71.7-51.7-184.2c0 0 18.9 40.4 182.3 95.3 0-.1-38.4 71.7-130.6 88.9z" class="st3"/>
  <path d="M116.2 259.6s22.1-105.5 134-136.6c0 0-25.6 36.5 8.1 205.5.1 0-81.3 2.5-142.1-68.9z" class="st4"/>
</svg>
