<?xml version="1.0" encoding="utf-8"?>
<!-- Generator: Adobe Illustrator 18.1.1, SVG Export Plug-In . SVG Version: 6.00 Build 0)  -->
<!DOCTYPE svg PUBLIC "-//W3C//DTD SVG 1.1//EN" "http://www.w3.org/Graphics/SVG/1.1/DTD/svg11.dtd">
<svg version="1.1" id="Layer_1" xmlns="http://www.w3.org/2000/svg" xmlns:xlink="http://www.w3.org/1999/xlink" x="0px" y="0px"
	 viewBox="38.7 50.2 683.2 592.3" enable-background="new 38.7 50.2 683.2 592.3" xml:space="preserve">
<path fill="#1BA99F" d="M658.3,213.1h-556c-6.6,0-12-5.4-12-12v-43.9c0-6.6,5.4-12,12-12h556c6.6,0,12,5.4,12,12v43.9
	C670.3,207.7,664.9,213.1,658.3,213.1z"/>
<path fill="#1BA99F" d="M658.3,326.1h-556c-6.6,0-12-5.4-12-12v-43.9c0-6.6,5.4-12,12-12h556c6.6,0,12,5.4,12,12v43.9
	C670.3,320.7,664.9,326.1,658.3,326.1z"/>
<path fill="none" stroke="#8AC5BF" stroke-width="24" stroke-miterlimit="10" d="M698,630.5H62.7c-6.6,0-12-5.4-12-12V74.2
	c0-6.6,5.4-12,12-12H698c6.6,0,12,5.4,12,12v544.3C710,625.1,704.6,630.5,698,630.5z"/>
<path fill="#1BA99F" d="M658.3,434.4h-556c-6.6,0-12-5.4-12-12v-43.9c0-6.6,5.4-12,12-12h556c6.6,0,12,5.4,12,12v43.9
	C670.3,429,664.9,434.4,658.3,434.4z"/>
<path fill="#1BA99F" d="M658.3,547.4h-556c-6.6,0-12-5.4-12-12v-43.9c0-6.6,5.4-12,12-12h556c6.6,0,12,5.4,12,12v43.9
	C670.3,542,664.9,547.4,658.3,547.4z"/>
</svg>
