<svg xmlns="http://www.w3.org/2000/svg" viewBox="38.7 93.4 533.6 429.8" enable-background="new 38.7 93.4 533.6 429.8"><path fill="#1BA99F" d="M501.5 197.4h-391.1c-6.6 0-12-5.4-12-12v-28.2c0-6.6 5.4-12 12-12h391.2c6.6 0 12 5.4 12 12v28.2c-.1 6.6-5.5 12-12.1 12zM501.5 284.2h-391.1c-6.6 0-12-5.4-12-12v-28.2c0-6.6 5.4-12 12-12h391.2c6.6 0 12 5.4 12 12v28.2c-.1 6.6-5.5 12-12.1 12zM501.5 367.5h-391.1c-6.6 0-12-5.4-12-12v-28.2c0-6.6 5.4-12 12-12h391.2c6.6 0 12 5.4 12 12v28.2c-.1 6.6-5.5 12-12.1 12zM501.5 454.4h-391.1c-6.6 0-12-5.4-12-12v-28.2c0-6.6 5.4-12 12-12h391.2c6.6 0 12 5.4 12 12v28.2c-.1 6.6-5.5 12-12.1 12z"/></svg>