<?xml version="1.0" encoding="utf-8"?>
<!-- Generator: Adobe Illustrator 18.1.1, SVG Export Plug-In . SVG Version: 6.00 Build 0)  -->
<!DOCTYPE svg PUBLIC "-//W3C//DTD SVG 1.1//EN" "http://www.w3.org/Graphics/SVG/1.1/DTD/svg11.dtd">
<svg version="1.1" id="Layer_1" xmlns="http://www.w3.org/2000/svg" xmlns:xlink="http://www.w3.org/1999/xlink" x="0px" y="0px"
	 viewBox="38.7 93.4 533.6 429.8" enable-background="new 38.7 93.4 533.6 429.8" xml:space="preserve">
<path fill="#1BA99F" d="M501.5,197.4H110.4c-6.6,0-12-5.4-12-12v-28.2c0-6.6,5.4-12,12-12h391.2c6.6,0,12,5.4,12,12v28.2
	C513.5,192,508.1,197.4,501.5,197.4z"/>
<path fill="#1BA99F" d="M501.5,284.2H110.4c-6.6,0-12-5.4-12-12v-28.2c0-6.6,5.4-12,12-12h391.2c6.6,0,12,5.4,12,12v28.2
	C513.5,278.8,508.1,284.2,501.5,284.2z"/>
<path fill="#1BA99F" d="M501.5,367.5H110.4c-6.6,0-12-5.4-12-12v-28.2c0-6.6,5.4-12,12-12h391.2c6.6,0,12,5.4,12,12v28.2
	C513.5,362.1,508.1,367.5,501.5,367.5z"/>
<path fill="#1BA99F" d="M501.5,454.4H110.4c-6.6,0-12-5.4-12-12v-28.2c0-6.6,5.4-12,12-12h391.2c6.6,0,12,5.4,12,12v28.2
	C513.5,449,508.1,454.4,501.5,454.4z"/>
</svg>
